<svg width="17" height="17" viewBox="0 0 17 17" fill="none" xmlns="http://www.w3.org/2000/svg">
<path d="M8.11538 5.71631L2.47351 11.6376C2.37932 11.7364 2.32678 11.8677 2.32678 12.0042C2.32678 12.1407 2.37932 12.2719 2.47351 12.3707L2.47988 12.3771C2.52554 12.4252 2.5805 12.4635 2.64142 12.4896C2.70233 12.5158 2.76793 12.5292 2.83423 12.5292C2.90052 12.5292 2.96612 12.5158 3.02704 12.4896C3.08795 12.4635 3.14291 12.4252 3.18857 12.3771L8.50107 6.80112L13.8114 12.3771C13.8571 12.4252 13.9121 12.4635 13.973 12.4896C14.0339 12.5158 14.0995 12.5292 14.1658 12.5292C14.2321 12.5292 14.2977 12.5158 14.3586 12.4896C14.4195 12.4635 14.4745 12.4252 14.5201 12.3771L14.5265 12.3707C14.6207 12.2719 14.6732 12.1407 14.6732 12.0042C14.6732 11.8677 14.6207 11.7364 14.5265 11.6376L8.88463 5.71631C8.83502 5.66423 8.77534 5.62277 8.70923 5.59445C8.64311 5.56612 8.57193 5.55151 8.50001 5.55151C8.42808 5.55151 8.3569 5.56612 8.29079 5.59445C8.22467 5.62277 8.165 5.66423 8.11538 5.71631Z" fill="#55B353"/>
</svg>
