<svg width="17" height="17" viewBox="0 0 17 17" fill="none" xmlns="http://www.w3.org/2000/svg">
<path d="M8.11538 11.2837L2.47351 5.36238C2.37932 5.26358 2.32678 5.13232 2.32678 4.99582C2.32678 4.85932 2.37932 4.72806 2.47351 4.62926L2.47988 4.62288C2.52554 4.57482 2.5805 4.53655 2.64142 4.51039C2.70233 4.48424 2.76793 4.47076 2.83423 4.47076C2.90052 4.47076 2.96612 4.48424 3.02704 4.51039C3.08795 4.53655 3.14291 4.57482 3.18857 4.62288L8.50107 10.1989L13.8114 4.62288C13.8571 4.57482 13.9121 4.53655 13.973 4.51039C14.0339 4.48424 14.0995 4.47076 14.1658 4.47076C14.2321 4.47076 14.2977 4.48424 14.3586 4.51039C14.4195 4.53655 14.4745 4.57482 14.5201 4.62288L14.5265 4.62926C14.6207 4.72806 14.6732 4.85932 14.6732 4.99582C14.6732 5.13232 14.6207 5.26358 14.5265 5.36238L8.88463 11.2837C8.83502 11.3358 8.77534 11.3772 8.70923 11.4056C8.64311 11.4339 8.57193 11.4485 8.50001 11.4485C8.42808 11.4485 8.3569 11.4339 8.29079 11.4056C8.22467 11.3772 8.165 11.3358 8.11538 11.2837Z" fill="#55B353"/>
</svg>
